<?xml version="1.0" encoding="utf-8"?>
<!-- Generator: Adobe Illustrator 20.0.0, SVG Export Plug-In . SVG Version: 6.00 Build 0)  -->
<svg version="1.1" xmlns="http://www.w3.org/2000/svg" xmlns:xlink="http://www.w3.org/1999/xlink" x="0px" y="0px"
	 viewBox="0 0 60 60" style="enable-background:new 0 0 60 60;" xml:space="preserve">
<style type="text/css">
	.st0{fill:none;stroke:#231F20;stroke-width:2;stroke-miterlimit:10;}
	.st1{fill:none;stroke:#231F20;stroke-width:2;stroke-linecap:round;stroke-miterlimit:10;stroke-dasharray:0,5;}
	.st2{display:none;}
	.st3{display:inline;fill:none;stroke:#231F20;stroke-width:2;stroke-miterlimit:10;}
	.st4{display:inline;fill:#231F20;}
	.st5{display:inline;fill:#FFFFFF;}
	.st6{display:inline;fill:none;stroke:#231F20;stroke-width:2;stroke-linecap:round;stroke-miterlimit:10;stroke-dasharray:0,5;}
	.st7{display:inline;fill:none;stroke:#231F20;stroke-width:2;stroke-linecap:round;stroke-miterlimit:10;}
	
		.st8{display:inline;fill:none;stroke:#231F20;stroke-width:2;stroke-linecap:round;stroke-miterlimit:10;stroke-dasharray:0,5.333;}
	.st9{display:inline;fill:none;stroke:#231F20;stroke-width:2;stroke-linecap:round;stroke-miterlimit:10;stroke-dasharray:0,5.5;}
	
		.st10{display:inline;fill:none;stroke:#231F20;stroke-width:2;stroke-linecap:round;stroke-miterlimit:10;stroke-dasharray:0,5.33;}
	
		.st11{display:inline;fill:none;stroke:#231F20;stroke-width:2;stroke-linecap:round;stroke-miterlimit:10;stroke-dasharray:0,4.994;}
</style>
<g id="Multiple_Carrier_Options">
	<g>
		<circle class="st0" cx="45.9" cy="9.7" r="2.6"/>
		<line class="st0" x1="44" y1="11.6" x2="40.3" y2="15.3"/>
	</g>
	<rect x="8.2" y="3.6" class="st0" width="43.8" height="52.5"/>
	<line class="st0" x1="8.2" y1="19.6" x2="52" y2="19.6"/>
	<line class="st0" x1="8.2" y1="31.8" x2="52" y2="31.8"/>
	<line class="st0" x1="8.2" y1="43.9" x2="52" y2="43.9"/>
	<line class="st1" x1="13.5" y1="11.5" x2="24" y2="11.5"/>
	<line class="st0" x1="23.1" y1="25.7" x2="46.8" y2="25.7"/>
	<line class="st0" x1="23.1" y1="37.8" x2="46.8" y2="37.8"/>
	<line class="st0" x1="23.1" y1="50.1" x2="46.8" y2="50.1"/>
	<rect x="13.4" y="23.9" class="st0" width="3.5" height="3.5"/>
	<rect x="13.4" y="36.1" class="st0" width="3.5" height="3.5"/>
	<rect x="13.4" y="48.3" class="st0" width="3.5" height="3.5"/>
</g>
<g id="Integration" class="st2">
	<rect x="2.2" y="5.8" class="st3" width="55.8" height="40"/>
	<rect x="7.7" y="11.3" class="st3" width="44.7" height="28.8"/>
	<polygon class="st3" points="36.6,56 23.6,56 24.5,45.8 35.7,45.8 	"/>
	<line class="st3" x1="15.2" y1="56" x2="45" y2="56"/>
	<rect x="19.8" y="23" class="st3" width="5.6" height="5.6"/>
	<line class="st3" x1="25.4" y1="20.2" x2="25.4" y2="31.3"/>
	<line class="st3" x1="34.7" y1="20.2" x2="34.7" y2="31.3"/>
	<line class="st3" x1="25.4" y1="23.9" x2="31" y2="23.9"/>
	<line class="st3" x1="25.4" y1="27.6" x2="31" y2="27.6"/>
	<rect x="34.7" y="23" class="st3" width="5.6" height="5.6"/>
	<line class="st3" x1="40.3" y1="25.8" x2="47.8" y2="25.8"/>
	<line class="st3" x1="19.8" y1="25.8" x2="12.4" y2="25.8"/>
	<line class="st3" x1="2.2" y1="40.2" x2="58" y2="40.2"/>
	<path class="st4" d="M29.1,43c0-0.5,0.4-0.9,0.9-0.9c0.5,0,0.9,0.4,0.9,0.9c0,0.5-0.4,0.9-0.9,0.9C29.6,43.9,29.1,43.5,29.1,43"/>
</g>
<g id="APIs" class="st2">
	<line class="st3" x1="39.2" y1="31" x2="46.5" y2="48.7"/>
	<line class="st3" x1="46.5" y1="31" x2="39.2" y2="48.7"/>
	<line class="st3" x1="51.7" y1="43.5" x2="34" y2="36.2"/>
	<line class="st3" x1="51.7" y1="36.2" x2="34" y2="43.5"/>
	<path class="st3" d="M34,32.3c0-0.4,0.1-0.8,0.1-1.2c0-0.4,0-0.8-0.1-1.2L30.3,29c-0.2-1-0.6-1.9-1.1-2.7l2.1-3.2
		c-0.5-0.6-1.1-1.2-1.7-1.7l-3.2,2.1c-0.8-0.5-1.7-0.9-2.7-1.1l-0.8-3.7c-0.4,0-0.8-0.1-1.2-0.1c-0.4,0-0.8,0-1.2,0.1l-0.8,3.7
		c-1,0.2-1.9,0.6-2.7,1.1l-3.2-2.1c-0.6,0.5-1.2,1.1-1.7,1.7l2.1,3.2c-0.5,0.8-0.9,1.7-1.1,2.7l-3.7,0.8c0,0.4-0.1,0.8-0.1,1.2
		c0,0.4,0,0.8,0.1,1.2L13,33c0.2,1,0.6,1.9,1.1,2.7l-2.1,3.2c0.5,0.6,1.1,1.2,1.7,1.7l3.2-2.1c0.8,0.5,1.7,0.9,2.7,1.1l0.8,3.7
		c0.4,0,0.8,0.1,1.2,0.1c0.4,0,0.8,0,1.2-0.1l0.8-3.7c1-0.2,1.9-0.6,2.7-1.1l3.2,2.1c0.6-0.5,1.2-1.1,1.7-1.7l-2.1-3.2
		c0.5-0.8,0.9-1.7,1.1-2.7L34,32.3z"/>
	<circle class="st3" cx="21.7" cy="31" r="4.1"/>
	<path class="st5" d="M46.1,38.5c0.7,1.8-0.1,3.9-1.9,4.6c-1.8,0.7-3.9-0.1-4.6-1.9c-0.7-1.8,0.1-3.9,1.9-4.6
		C43.3,35.9,45.4,36.7,46.1,38.5"/>
	<ellipse transform="matrix(0.9239 -0.3827 0.3827 0.9239 -11.9943 19.4398)" class="st3" cx="42.9" cy="39.9" rx="3.5" ry="3.5"/>
	<path class="st3" d="M57,54H4V9.8c0-2,1.6-3.5,3.5-3.5h45.9c2,0,3.5,1.6,3.5,3.5V54z"/>
	<line class="st3" x1="4" y1="13.4" x2="57" y2="13.4"/>
	<line class="st6" x1="7.5" y1="9.8" x2="18.1" y2="9.8"/>
</g>
<g id="No_contract" class="st2">
	<polygon class="st3" points="50,29.5 50,14.2 42.5,6.7 12.8,6.7 12.8,23 23.9,31.4 31.4,26.7 42.5,33.3 	"/>
	<polyline class="st3" points="42.5,6.7 42.5,14.2 50,14.2 	"/>
	<polygon class="st3" points="12.8,29.5 12.8,57 50,57 50,36.1 42.5,39.8 31.4,33.3 23.9,37.9 	"/>
	<path class="st3" d="M25.8,6.7c0-2.1-1.7-3.7-3.7-3.7c-2.1,0-3.7,1.7-3.7,3.7v10.6c0,1.4,1.1,2.5,2.5,2.5c1.4,0,2.5-1.1,2.5-2.5
		v-6.8"/>
	<line class="st3" x1="27.7" y1="48.6" x2="44.4" y2="48.6"/>
	<line class="st3" x1="23.9" y1="51.4" x2="18.3" y2="45.8"/>
	<line class="st3" x1="18.3" y1="51.4" x2="23.9" y2="45.8"/>
</g>
<g id="Returns" class="st2">
	<rect x="13.8" y="4.1" class="st3" width="35.2" height="52.9"/>
	<rect x="38.4" y="9.4" class="st3" width="5.3" height="5.3"/>
	<line class="st3" x1="18.2" y1="9.4" x2="32.3" y2="9.4"/>
	<line class="st3" x1="18.2" y1="13.8" x2="32.3" y2="13.8"/>
	<line class="st3" x1="18.2" y1="18.2" x2="28.7" y2="18.2"/>
	<line class="st3" x1="18.2" y1="30.6" x2="39.3" y2="30.6"/>
	<line class="st3" x1="18.2" y1="35" x2="39.3" y2="35"/>
	<line class="st3" x1="18.2" y1="39.4" x2="34" y2="39.4"/>
	<line class="st3" x1="13.8" y1="25.3" x2="49" y2="25.3"/>
	<rect x="19" y="44.7" class="st3" width="24.7" height="7"/>
</g>
<g id="International" class="st2">
	<ellipse class="st3" cx="30" cy="31.5" rx="28.2" ry="23.5"/>
	<line class="st3" x1="30" y1="8" x2="30" y2="55"/>
	<line class="st3" x1="3.3" y1="24" x2="56.7" y2="24"/>
	<line class="st3" x1="3.3" y1="39" x2="56.7" y2="39"/>
	<path class="st3" d="M30,8c7.8,0,14.1,10.5,14.1,23.5c0,13-6.3,23.5-14.1,23.5"/>
	<path class="st3" d="M30,8c-7.8,0-14.1,10.5-14.1,23.5c0,13,6.3,23.5,14.1,23.5"/>
	<path class="st3" d="M6.3,44.2c2.8-2.8,16,0,16-5.2c0-6-13.9-1-13.1-10.7c0.4-4.9,0.3-10.2-4.3-7.6"/>
	<path class="st3" d="M17.5,10.4c0,2.7,4.7,4.8,8.6,3.1c3.9-1.7,5.1-2.7,10.1-0.3c5.1,2.5,6.3-2.8,6.3-2.8"/>
	<path class="st3" d="M17,52.4c1.4-2.5,4.6-4.5,8.8-3.9c2.7,0.4,4.5,2.9,8.1,1.7c6.1-1.9,8.6,2.4,8.6,2.4"/>
	<path class="st3" d="M54.6,20c-5.8,3.2-18-3-19.4,1.5c-1.6,5.1,12.4,6.8,14.2,12.4c1.7,5.1-5.4,8.6-4,10.8c1.6,2.6,7.4-3.9,9.3-1.7
		"/>
</g>
<g id="Price" class="st2">
	<rect x="13" y="3" class="st3" width="35" height="52.5"/>
	<rect x="18.3" y="45" class="st3" width="5.3" height="5.3"/>
	<rect x="18.3" y="35.4" class="st3" width="5.3" height="5.3"/>
	<rect x="18.3" y="25.8" class="st3" width="5.3" height="5.3"/>
	<rect x="27.9" y="45" class="st3" width="5.3" height="5.3"/>
	<rect x="27.9" y="35.4" class="st3" width="5.3" height="5.3"/>
	<rect x="27.9" y="25.8" class="st3" width="5.3" height="5.3"/>
	<rect x="37.5" y="35.4" class="st3" width="5.3" height="14.9"/>
	<rect x="37.5" y="25.8" class="st3" width="5.3" height="5.3"/>
	<line class="st3" x1="48" y1="20.5" x2="13" y2="20.5"/>
	<rect x="18.3" y="8.3" class="st3" width="24.5" height="7"/>
	<line class="st7" x1="37.5" y1="11.8" x2="37.5" y2="11.8"/>
	<line class="st8" x1="32.8" y1="11.8" x2="25.8" y2="11.8"/>
	<line class="st7" x1="23.5" y1="11.8" x2="23.5" y2="11.8"/>
</g>
<g id="Tracking" class="st2">
	<path class="st3" d="M40.5,10.3c0-4.6,3.7-8.2,8.2-8.2c4.6,0,8.2,3.7,8.2,8.2c0,7.3-8.2,19.2-8.2,19.2S40.5,17.6,40.5,10.3z"/>
	<circle class="st3" cx="48.7" cy="10.3" r="2.7"/>
	<path class="st3" d="M2,37.8c0-4.6,3.7-8.2,8.2-8.2c4.6,0,8.2,3.7,8.2,8.2c0,7.3-8.2,19.2-8.2,19.2S2,45.1,2,37.8z"/>
	<circle class="st3" cx="10.2" cy="37.8" r="2.7"/>
	<line class="st7" x1="28.6" y1="29.5" x2="28.6" y2="29.5"/>
	<line class="st9" x1="33.6" y1="29.5" x2="46.2" y2="29.5"/>
	<line class="st7" x1="48.7" y1="29.5" x2="48.7" y2="29.5"/>
	<line class="st7" x1="46.6" y1="47" x2="46.6" y2="47"/>
	<line class="st10" x1="42.9" y1="43.8" x2="29.8" y2="32.8"/>
	<line class="st7" x1="27.9" y1="31.3" x2="27.9" y2="31.3"/>
	<line class="st7" x1="10.2" y1="57" x2="10.2" y2="57"/>
	<line class="st11" x1="14.7" y1="56" x2="43.8" y2="49.8"/>
	<line class="st7" x1="46.1" y1="49.3" x2="46.1" y2="49.3"/>
	<path class="st5" d="M23.1,29.5c0-1.5,1.2-2.7,2.7-2.7c1.5,0,2.7,1.2,2.7,2.7c0,1.5-1.2,2.7-2.7,2.7C24.3,32.3,23.1,31,23.1,29.5"
		/>
	<circle class="st3" cx="25.8" cy="29.5" r="2.7"/>
	<path class="st5" d="M46,48.8c0-1.5,1.2-2.7,2.7-2.7c1.5,0,2.7,1.2,2.7,2.7c0,1.5-1.2,2.7-2.7,2.7C47.2,51.5,46,50.3,46,48.8"/>
	<circle class="st3" cx="48.7" cy="48.8" r="2.7"/>
	<polygon class="st3" points="32.2,18.5 32.2,10.3 10.2,10.3 10.2,18.5 23.1,18.5 25.8,22.2 28.6,18.5 	"/>
</g>
<g id="Customer_Support" class="st2">
	<path class="st3" d="M14.2,36.5h-1.3c-2.2,0-4-1.8-4-4v-6.2c0-2.2,1.8-4,4-4h1.3V36.5z"/>
	<rect x="14.2" y="22.3" class="st3" width="3.5" height="14.2"/>
	<path class="st3" d="M51.4,36.5h1.3c2.2,0,4-1.8,4-4v-6.2c0-2.2-1.8-4-4-4h-1.3V36.5z"/>
	
		<rect x="47.9" y="22.3" transform="matrix(-1 4.459843e-11 -4.459843e-11 -1 99.3065 58.7398)" class="st3" width="3.5" height="14.2"/>
	<path class="st3" d="M51.4,23.2v-1.8c0-10.3-8.3-18.6-18.6-18.6s-18.6,8.3-18.6,18.6v1.8"/>
	<path class="st3" d="M51.4,34.7v2.7c0,10.3-8.3,18.6-18.6,18.6"/>
	<circle class="st3" cx="32.8" cy="52.4" r="3.5"/>
	<path class="st3" d="M7.1,52.6c-2,0-3.5-1.6-3.5-3.5v-1.8c0-2,1.6-3.5,3.5-3.5h11.5c2,0,3.6,1.6,3.6,3.6V49c0,2-1.6,3.6-3.6,3.6
		h-6.2L8,55.2v-2.7H7.1z"/>
</g>
</svg>
