<svg id="Layer_1" data-name="Layer 1" xmlns="http://www.w3.org/2000/svg" viewBox="0 0 180 180"><defs><style>.cls-1{fill:#e2e2e2;}.cls-2{fill:#231f20;}</style></defs><title>ic_price_180</title><rect class="cls-1" x="30.76" y="93.51" width="17.74" height="55"/><rect class="cls-1" x="11.5" y="93.51" width="16.26" height="55"/><path class="cls-1" d="M106.45,65.32a1.44,1.44,0,0,0,.75-.2,1.48,1.48,0,0,0,.55-2,1.5,1.5,0,1,0-1.3,2.24Z"/><path class="cls-1" d="M95.48,71.65a1.43,1.43,0,0,0,.75-.2,1.5,1.5,0,1,0-.75.2Z"/><path class="cls-1" d="M122.91,55.83a1.5,1.5,0,1,0-1.31-.75A1.52,1.52,0,0,0,122.91,55.83Z"/><path class="cls-1" d="M117.42,59a1.46,1.46,0,0,0,.75-.2,1.5,1.5,0,1,0-.75.2Z"/><path class="cls-1" d="M128.39,52.66a1.46,1.46,0,0,0,.75-.2,1.5,1.5,0,1,0-.75.2Z"/><path class="cls-1" d="M101,68.49a1.59,1.59,0,0,0,.75-.2,1.51,1.51,0,0,0,.55-2,1.5,1.5,0,1,0-1.3,2.25Z"/><path class="cls-1" d="M111.94,62.16a1.59,1.59,0,0,0,.75-.2,1.5,1.5,0,0,0,.54-2,1.5,1.5,0,1,0-1.29,2.25Z"/><path class="cls-1" d="M83.75,71.45a1.53,1.53,0,0,0,.75.2,1.5,1.5,0,1,0-1.3-2.26A1.51,1.51,0,0,0,83.75,71.45Z"/><path class="cls-1" d="M52.8,51.85a1.5,1.5,0,1,0-2,.55,1.53,1.53,0,0,0,.75.2A1.5,1.5,0,0,0,52.8,51.85Z"/><path class="cls-1" d="M56.25,55.57a1.43,1.43,0,0,0,.75.2,1.5,1.5,0,1,0-.75-.2Z"/><path class="cls-1" d="M61.75,58.75a1.56,1.56,0,0,0,.75.2,1.5,1.5,0,1,0-.75-.2Z"/><path class="cls-1" d="M72.75,65.1a1.55,1.55,0,0,0,.75.2,1.5,1.5,0,1,0-.75-.2Z"/><path class="cls-1" d="M67.25,61.92a1.42,1.42,0,0,0,.74.2,1.5,1.5,0,1,0-1.29-2.25A1.5,1.5,0,0,0,67.25,61.92Z"/><path class="cls-1" d="M78.25,68.27a1.43,1.43,0,0,0,.75.2,1.5,1.5,0,1,0-.75-.2Z"/><circle class="cls-1" cx="90" cy="49.87" r="1.5"/><circle class="cls-1" cx="90" cy="61.6" r="1.5"/><path class="cls-1" d="M90,57.23a1.5,1.5,0,1,0-1.5-1.5A1.5,1.5,0,0,0,90,57.23Z"/><circle class="cls-1" cx="90" cy="67.46" r="1.5"/><circle class="cls-1" cx="90" cy="79.55" r="1.5"/><circle class="cls-1" cx="90" cy="85.78" r="1.5"/><path class="cls-1" d="M90,74.82a1.55,1.55,0,0,0,.57-.11,1.61,1.61,0,0,0,.49-.33,1.5,1.5,0,0,0,.44-1.06,1.52,1.52,0,0,0-.44-1.06,2.06,2.06,0,0,0-.23-.19,1.23,1.23,0,0,0-.26-.13,1.34,1.34,0,0,0-.28-.09,1.42,1.42,0,0,0-.58,0,1.33,1.33,0,0,0-.28.09,1.24,1.24,0,0,0-.26.13,1.49,1.49,0,0,0-.23.19,1.52,1.52,0,0,0-.44,1.06,1.5,1.5,0,0,0,.44,1.06A1.46,1.46,0,0,0,90,74.82Z"/><rect class="cls-1" x="51.5" y="127.51" width="83" height="3"/><path class="cls-2" d="M90,45.51A15.5,15.5,0,1,0,74.5,30,15.52,15.52,0,0,0,90,45.51Zm0-28A12.5,12.5,0,1,1,77.5,30,12.51,12.51,0,0,1,90,17.51Z"/><path class="cls-2" d="M88.5,36.64v1.7h3V36.66c3.15-.31,4.74-1.64,4.74-4s-2-3.33-4.11-3.93l-.64-.18V25.82c1,.15,1.74.45,1.74.95v.78h3v-.78c0-1.1-.51-3.51-4.74-4V21.1h-3v1.66c-2,.16-4.74.86-4.74,4,0,2.3,2,3.28,4.13,3.92l.61.18v2.76c-1-.15-1.74-.45-1.74-.95v-.78h-3v.78C83.76,33.77,84.27,36.18,88.5,36.64Zm0-10.88v2c-.9-.29-1.74-.64-1.74-1S86.76,25.94,88.5,25.77Zm3,5.91c1.08.32,1.74.61,1.74,1,0,.21,0,.78-1.74,1Z"/><path class="cls-2" d="M34,56.5A15.5,15.5,0,1,0,18.5,41,15.52,15.52,0,0,0,34,56.5Zm0-28A12.48,12.48,0,0,1,45.09,46.75c-.17.33-.36.66-.57,1A12.49,12.49,0,1,1,34,28.5Z"/><path class="cls-2" d="M32.5,47.63v1.7h3V47.65c3.15-.31,4.74-1.64,4.74-4s-2-3.33-4.11-3.93l-.64-.18V36.8c1,.15,1.74.45,1.74.95v.78h3v-.78c0-1.1-.51-3.51-4.74-4v-1.7h-3v1.66c-2,.16-4.74.86-4.74,4,0,2.3,2,3.28,4.13,3.92l.61.18v2.76c-1-.15-1.74-.45-1.74-.95v-.78h-3v.78C27.76,44.76,28.27,47.17,32.5,47.63Zm0-10.88v2c-.9-.29-1.74-.64-1.74-1S30.76,36.93,32.5,36.76Zm3,5.91c1.08.32,1.74.61,1.74,1,0,.21,0,.78-1.74,1Z"/><path class="cls-2" d="M146,56.5A15.5,15.5,0,1,0,130.5,41,15.52,15.52,0,0,0,146,56.5Zm0-28A12.5,12.5,0,1,1,133.5,41,12.51,12.51,0,0,1,146,28.5Z"/><path class="cls-2" d="M144.5,47.63v1.7h3V47.65c3.15-.31,4.74-1.64,4.74-4s-2-3.33-4.11-3.93l-.64-.18V36.8c1,.15,1.74.45,1.74.95v.78h3v-.78c0-1.1-.51-3.51-4.74-4v-1.7h-3v1.66c-2,.16-4.74.86-4.74,4,0,2.3,2,3.28,4.13,3.92l.61.18v2.76c-1-.15-1.74-.45-1.74-.95v-.78h-3v.78C139.76,44.76,140.27,47.17,144.5,47.63Zm0-10.88v2c-.9-.29-1.74-.64-1.74-1S142.76,36.93,144.5,36.76Zm3,5.91c1.08.32,1.74.61,1.74,1,0,.21,0,.78-1.74,1Z"/><path class="cls-2" d="M158.32,121l-3.45-15.51h0l-.44-1.82h0L153,97.75a8.94,8.94,0,0,0-8.55-7.23H8.5v61H18.61a11.49,11.49,0,0,0,22.78,0H60.61a11.49,11.49,0,0,0,22.78,0H99.61a11.49,11.49,0,0,0,22.78,0h19.22a11.49,11.49,0,0,0,22.78,0h7.11v-23.4Zm-3.18-.5H137.5v-15h14.3Zm-10.64-27a6,6,0,0,1,5.61,4.84l1,4.16H137.5v-9Zm-93,0h83v9h-83Zm-40,0H27.76v55H11.5Zm19.26,55v-55H48.5v55Zm-.76,10a8.51,8.51,0,0,1-8.36-7H38.36A8.51,8.51,0,0,1,30,158.51ZM80.5,150a8.55,8.55,0,1,1-.14-1.5A8.48,8.48,0,0,1,80.5,150Zm30.5,8.5a8.51,8.51,0,0,1-8.36-7h16.72A8.51,8.51,0,0,1,111,158.51Zm23.5-10H83.39a11.49,11.49,0,0,0-22.78,0H51.5v-43h83v43Zm27,1.5a8.55,8.55,0,1,1-.14-1.5A8.48,8.48,0,0,1,161.5,150Zm7-1.5h-4.11a11.49,11.49,0,0,0-22.78,0H137.5v-25h19.12l11.88,6.4Z"/><path class="cls-2" d="M153,144.51a5.52,5.52,0,1,0,5.29,4A5.51,5.51,0,0,0,153,144.51Zm2.5,5.5a2.53,2.53,0,1,1-.51-1.5A2.48,2.48,0,0,1,155.5,150Z"/><path class="cls-2" d="M72,144.51a5.52,5.52,0,1,0,5.29,4A5.51,5.51,0,0,0,72,144.51Zm2.5,5.5a2.53,2.53,0,1,1-.51-1.5A2.48,2.48,0,0,1,74.5,150Z"/></svg>